<svg width="40" height="40" viewBox="0 0 40 40" fill="none" xmlns="http://www.w3.org/2000/svg">
<g clip-path="url(#clip0_3302_422)">
<path d="M20 11.6667C10.8 11.6667 3.33337 15.4 3.33337 20C3.33337 23.7333 8.23337 26.8833 15 27.95V33.3333L21.6667 26.6667L15 20V24.55C9.75004 23.6167 6.66671 21.3833 6.66671 20C6.66671 18.2333 11.7334 15 20 15C28.2667 15 33.3334 18.2333 33.3334 20C33.3334 21.2167 30.9 23.15 26.6667 24.2167V27.6333C32.55 26.35 36.6667 23.4167 36.6667 20C36.6667 15.4 29.2 11.6667 20 11.6667Z" fill="white"/>
</g>
<defs>
<clipPath id="clip0_3302_422">
<rect width="40" height="40" fill="white"/>
</clipPath>
</defs>
</svg>
